<mxfile host="app.diagrams.net" modified="2024-02-21T05:56:04.552Z" agent="Mozilla/5.0 (Windows NT 10.0; Win64; x64) AppleWebKit/537.36 (KHTML, like Gecko) Chrome/121.0.0.0 Safari/537.36" etag="NzmVtuPqgoOv-YoEVcfI" version="23.1.5" type="github">
  <diagram name="Page-1" id="MkuQKEPpwECGpC4N3dIB">
    <mxGraphModel dx="1050" dy="557" grid="1" gridSize="10" guides="1" tooltips="1" connect="1" arrows="1" fold="1" page="1" pageScale="1" pageWidth="850" pageHeight="1100" math="0" shadow="0">
      <root>
        <mxCell id="0" />
        <mxCell id="1" parent="0" />
        <mxCell id="NZ1tOeTBVA4fdKIwXPKE-1" value="UI/Client" style="whiteSpace=wrap;html=1;aspect=fixed;" vertex="1" parent="1">
          <mxGeometry x="50" y="180" width="80" height="80" as="geometry" />
        </mxCell>
        <mxCell id="NZ1tOeTBVA4fdKIwXPKE-3" value="web App" style="rounded=0;whiteSpace=wrap;html=1;" vertex="1" parent="1">
          <mxGeometry x="450" y="190" width="120" height="60" as="geometry" />
        </mxCell>
        <mxCell id="NZ1tOeTBVA4fdKIwXPKE-5" value="load balancer" style="shape=ext;double=1;rounded=0;whiteSpace=wrap;html=1;" vertex="1" parent="1">
          <mxGeometry x="370" y="140" width="40" height="130" as="geometry" />
        </mxCell>
        <mxCell id="NZ1tOeTBVA4fdKIwXPKE-7" value="apigee" style="strokeWidth=2;html=1;shape=mxgraph.flowchart.terminator;whiteSpace=wrap;" vertex="1" parent="1">
          <mxGeometry x="230" y="190" width="100" height="60" as="geometry" />
        </mxCell>
        <mxCell id="NZ1tOeTBVA4fdKIwXPKE-8" value="mysql db" style="strokeWidth=2;html=1;shape=mxgraph.flowchart.database;whiteSpace=wrap;" vertex="1" parent="1">
          <mxGeometry x="750" y="190" width="60" height="60" as="geometry" />
        </mxCell>
        <mxCell id="NZ1tOeTBVA4fdKIwXPKE-10" value="" style="endArrow=classic;startArrow=classic;html=1;rounded=0;entryX=-0.067;entryY=0.637;entryDx=0;entryDy=0;entryPerimeter=0;" edge="1" parent="1" target="NZ1tOeTBVA4fdKIwXPKE-8">
          <mxGeometry width="50" height="50" relative="1" as="geometry">
            <mxPoint x="570" y="230" as="sourcePoint" />
            <mxPoint x="620" y="180" as="targetPoint" />
          </mxGeometry>
        </mxCell>
        <mxCell id="NZ1tOeTBVA4fdKIwXPKE-11" value="" style="endArrow=classic;html=1;rounded=0;entryX=0;entryY=0.5;entryDx=0;entryDy=0;entryPerimeter=0;" edge="1" parent="1" target="NZ1tOeTBVA4fdKIwXPKE-7">
          <mxGeometry width="50" height="50" relative="1" as="geometry">
            <mxPoint x="130" y="220" as="sourcePoint" />
            <mxPoint x="180" y="170" as="targetPoint" />
          </mxGeometry>
        </mxCell>
        <mxCell id="NZ1tOeTBVA4fdKIwXPKE-12" value="web App" style="rounded=0;whiteSpace=wrap;html=1;" vertex="1" parent="1">
          <mxGeometry x="450" y="290" width="120" height="60" as="geometry" />
        </mxCell>
        <mxCell id="NZ1tOeTBVA4fdKIwXPKE-13" value="web App" style="rounded=0;whiteSpace=wrap;html=1;" vertex="1" parent="1">
          <mxGeometry x="450" y="80" width="120" height="60" as="geometry" />
        </mxCell>
        <mxCell id="NZ1tOeTBVA4fdKIwXPKE-16" value="" style="outlineConnect=0;dashed=0;verticalLabelPosition=bottom;verticalAlign=top;align=center;html=1;shape=mxgraph.aws3.cache_node;fillColor=#2E73B8;gradientColor=none;" vertex="1" parent="1">
          <mxGeometry x="600" y="10" width="60" height="63" as="geometry" />
        </mxCell>
        <mxCell id="NZ1tOeTBVA4fdKIwXPKE-18" value="" style="endArrow=classic;startArrow=classic;html=1;rounded=0;" edge="1" parent="1">
          <mxGeometry width="50" height="50" relative="1" as="geometry">
            <mxPoint x="570" y="110" as="sourcePoint" />
            <mxPoint x="620" y="60" as="targetPoint" />
          </mxGeometry>
        </mxCell>
        <mxCell id="NZ1tOeTBVA4fdKIwXPKE-20" value="Risk API" style="shape=hexagon;perimeter=hexagonPerimeter2;whiteSpace=wrap;html=1;fixedSize=1;" vertex="1" parent="1">
          <mxGeometry x="640" y="350" width="120" height="80" as="geometry" />
        </mxCell>
        <mxCell id="NZ1tOeTBVA4fdKIwXPKE-21" value="" style="endArrow=classic;html=1;rounded=0;entryX=-0.08;entryY=0.617;entryDx=0;entryDy=0;entryPerimeter=0;" edge="1" parent="1" target="NZ1tOeTBVA4fdKIwXPKE-5">
          <mxGeometry width="50" height="50" relative="1" as="geometry">
            <mxPoint x="330" y="220" as="sourcePoint" />
            <mxPoint x="380" y="170" as="targetPoint" />
          </mxGeometry>
        </mxCell>
        <mxCell id="NZ1tOeTBVA4fdKIwXPKE-22" value="" style="endArrow=classic;html=1;rounded=0;entryX=-0.02;entryY=0.63;entryDx=0;entryDy=0;entryPerimeter=0;" edge="1" parent="1" target="NZ1tOeTBVA4fdKIwXPKE-13">
          <mxGeometry width="50" height="50" relative="1" as="geometry">
            <mxPoint x="410" y="210" as="sourcePoint" />
            <mxPoint x="460" y="160" as="targetPoint" />
            <Array as="points" />
          </mxGeometry>
        </mxCell>
        <mxCell id="NZ1tOeTBVA4fdKIwXPKE-23" value="" style="endArrow=classic;html=1;rounded=0;entryX=0;entryY=0.5;entryDx=0;entryDy=0;" edge="1" parent="1" target="NZ1tOeTBVA4fdKIwXPKE-3">
          <mxGeometry width="50" height="50" relative="1" as="geometry">
            <mxPoint x="410" y="220" as="sourcePoint" />
            <mxPoint x="460" y="170" as="targetPoint" />
          </mxGeometry>
        </mxCell>
        <mxCell id="NZ1tOeTBVA4fdKIwXPKE-24" value="" style="endArrow=classic;html=1;rounded=0;entryX=-0.027;entryY=0.397;entryDx=0;entryDy=0;entryPerimeter=0;" edge="1" parent="1" target="NZ1tOeTBVA4fdKIwXPKE-12">
          <mxGeometry width="50" height="50" relative="1" as="geometry">
            <mxPoint x="410" y="220" as="sourcePoint" />
            <mxPoint x="460" y="170" as="targetPoint" />
          </mxGeometry>
        </mxCell>
        <mxCell id="NZ1tOeTBVA4fdKIwXPKE-25" value="Login" style="html=1;whiteSpace=wrap;strokeColor=none;fillColor=#0079D6;labelPosition=center;verticalLabelPosition=middle;verticalAlign=top;align=center;fontSize=12;outlineConnect=0;spacingTop=-6;fontColor=#FFFFFF;sketch=0;shape=mxgraph.sitemap.login;" vertex="1" parent="1">
          <mxGeometry x="150" y="200" width="60" height="40" as="geometry" />
        </mxCell>
        <mxCell id="NZ1tOeTBVA4fdKIwXPKE-26" value="" style="sketch=0;pointerEvents=1;shadow=0;dashed=0;html=1;strokeColor=none;fillColor=#505050;labelPosition=center;verticalLabelPosition=bottom;verticalAlign=top;outlineConnect=0;align=center;shape=mxgraph.office.security.token;" vertex="1" parent="1">
          <mxGeometry x="159.5" y="170" width="30.5" height="22" as="geometry" />
        </mxCell>
      </root>
    </mxGraphModel>
  </diagram>
</mxfile>
